<?xml version="1.0" standalone="no"?>
<!DOCTYPE svg PUBLIC "-//W3C//DTD SVG 20010904//EN"
 "http://www.w3.org/TR/2001/REC-SVG-20010904/DTD/svg10.dtd">
<svg version="1.0" xmlns="http://www.w3.org/2000/svg"
 width="1708.000000pt" height="1708.000000pt" viewBox="0 0 1708.000000 1708.000000"
 preserveAspectRatio="xMidYMid meet">
<metadata>
Created by potrace 1.14, written by Peter Selinger 2001-2017
</metadata>
<g transform="translate(0.000000,1708.000000) scale(0.100000,-0.100000)"
fill="#000000" stroke="none">
<path d="M12640 12673 c-1 -5 -27 -37 -59 -71 l-59 -64 56 -51 c32 -28 80 -72
107 -98 80 -76 146 -138 256 -239 56 -52 115 -106 129 -120 15 -14 80 -74 145
-135 65 -60 141 -132 170 -160 29 -27 97 -90 151 -140 54 -49 119 -110 145
-135 26 -25 89 -83 140 -130 51 -47 116 -107 144 -135 49 -46 172 -161 339
-316 38 -35 86 -80 106 -99 21 -19 84 -78 140 -130 56 -52 118 -111 139 -130
21 -19 91 -85 157 -146 65 -62 135 -126 154 -144 60 -56 250 -233 300 -280 26
-25 94 -88 150 -140 57 -52 120 -111 140 -130 21 -19 93 -87 161 -150 150
-140 264 -247 299 -280 14 -14 71 -66 126 -117 55 -51 120 -111 145 -135 26
-24 97 -90 159 -148 62 -58 125 -116 139 -130 15 -14 54 -51 88 -82 l61 -57
-102 -97 c-55 -53 -175 -167 -266 -254 -91 -87 -190 -181 -220 -210 -49 -46
-163 -154 -394 -375 -95 -91 -376 -358 -446 -425 -56 -53 -339 -323 -435 -415
-29 -27 -123 -117 -210 -200 -86 -82 -179 -170 -205 -195 -39 -37 -265 -253
-435 -415 -23 -22 -104 -98 -179 -170 -75 -71 -167 -159 -205 -195 -72 -69
-403 -385 -482 -460 -26 -25 -116 -111 -201 -191 -84 -81 -191 -182 -237 -226
l-84 -80 62 -63 c33 -35 61 -68 61 -72 0 -16 18 -7 56 28 21 20 111 105 199
189 88 84 185 176 215 205 57 54 334 318 425 405 29 28 126 120 216 205 89 85
184 175 209 200 26 25 122 117 215 205 194 185 209 199 425 405 89 85 182 173
205 195 57 54 344 328 409 390 64 61 382 364 453 431 98 93 356 339 424 406
38 36 69 65 69 64 0 -1 42 39 93 89 52 49 162 155 246 235 376 356 392 372
389 381 -10 27 -155 178 -317 329 -131 121 -149 138 -301 280 -61 58 -124 116
-139 130 -15 14 -85 79 -155 145 -71 66 -141 131 -156 145 -157 147 -269 250
-295 275 -43 41 -268 250 -328 305 -27 25 -79 74 -117 110 -37 36 -114 108
-171 160 -56 52 -116 108 -133 124 -42 39 -250 232 -296 276 -20 19 -86 80
-145 135 -60 55 -127 118 -150 140 -23 22 -86 81 -140 130 -53 50 -121 113
-150 140 -28 28 -78 74 -111 104 -32 30 -110 102 -172 160 -150 140 -190 178
-318 296 -59 55 -139 130 -178 168 -38 37 -71 67 -72 67 -1 0 -33 29 -71 64
-419 393 -455 426 -470 426 -7 0 -13 -3 -13 -7z"/>
<path d="M4209 12512 c-23 -23 -245 -236 -384 -367 -23 -22 -117 -112 -210
-200 -92 -88 -186 -178 -210 -200 -23 -22 -117 -112 -210 -200 -92 -88 -191
-182 -220 -210 -194 -184 -375 -357 -420 -400 -28 -27 -125 -120 -215 -205
-90 -85 -182 -173 -205 -195 -23 -22 -122 -116 -220 -210 -98 -93 -197 -188
-220 -210 -38 -36 -265 -252 -405 -385 -30 -29 -127 -121 -215 -205 -88 -84
-185 -176 -215 -205 -66 -63 -368 -351 -458 -437 -35 -35 -65 -63 -66 -63 -1
0 -41 -37 -88 -82 -47 -46 -122 -118 -167 -161 l-82 -78 50 -52 c28 -29 50
-55 50 -60 0 -4 13 -19 28 -33 24 -22 90 -83 267 -249 18 -16 81 -75 140 -130
59 -55 131 -122 160 -150 30 -27 78 -72 107 -100 62 -57 317 -295 399 -371 30
-29 73 -68 94 -88 64 -59 249 -232 287 -268 20 -18 84 -78 143 -133 60 -55
125 -116 145 -135 34 -33 203 -190 350 -326 35 -32 78 -72 96 -89 51 -47 274
-256 315 -295 20 -19 83 -78 139 -130 138 -128 158 -147 302 -281 68 -64 138
-128 154 -143 17 -16 82 -76 145 -136 63 -59 131 -122 150 -140 19 -17 87 -81
151 -141 64 -60 126 -117 136 -127 17 -14 168 -155 303 -282 197 -185 263
-246 271 -249 9 -3 34 21 113 107 l30 32 -40 36 c-21 20 -88 82 -149 139 -60
57 -123 116 -140 131 -16 15 -88 81 -159 148 -71 67 -142 132 -157 146 -26 24
-246 230 -299 280 -33 31 -240 224 -285 265 -18 17 -83 77 -145 135 -62 58
-127 119 -145 135 -18 17 -86 80 -151 141 -65 61 -135 126 -154 144 -102 94
-284 264 -349 325 -40 39 -86 81 -101 95 -196 181 -349 324 -459 428 -25 24
-84 79 -131 122 -47 43 -108 100 -136 127 -29 26 -98 91 -154 143 -57 52 -118
109 -135 125 -17 17 -89 84 -160 150 -71 66 -143 133 -159 149 -17 15 -80 74
-140 130 -60 55 -126 117 -146 136 -117 110 -280 262 -313 291 -45 41 -65 13
163 229 89 85 188 180 220 210 32 30 98 93 147 140 49 47 172 164 273 260 226
216 221 211 420 400 90 85 184 175 210 200 39 38 202 193 430 410 30 29 119
114 198 189 79 75 174 165 211 201 168 160 398 379 442 420 50 48 324 309 419
400 31 30 126 120 210 200 83 80 175 168 204 195 170 162 393 374 445 424 34
31 61 61 61 66 0 9 -125 146 -132 145 -2 -1 -15 -13 -29 -28z"/>
<path d="M10706 11903 c-1 -1 -47 -3 -104 -4 -86 -1 -142 -9 -302 -43 -8 -2
-22 -6 -30 -9 -26 -10 -95 -31 -109 -33 -51 -9 -311 -155 -369 -208 -13 -12
-25 -20 -28 -18 -5 3 -23 -13 -129 -116 -91 -89 -150 -156 -194 -221 -14 -20
-27 -38 -30 -41 -8 -7 -29 -41 -38 -60 -3 -8 -15 -27 -25 -42 -16 -23 -80
-145 -83 -158 -2 -9 -27 -64 -40 -90 -14 -28 -85 -243 -91 -277 -2 -13 -6 -34
-9 -48 -3 -14 -7 -37 -10 -52 -3 -16 -10 -50 -15 -78 -14 -71 -23 -220 -23
-365 0 -173 10 -264 52 -478 6 -30 13 -57 15 -61 14 -21 -20 -29 -149 -35 -77
-3 -153 -8 -170 -10 -16 -3 -55 -8 -85 -11 -30 -4 -64 -9 -75 -11 -11 -2 -40
-6 -64 -9 -24 -3 -46 -7 -50 -9 -3 -2 -24 -7 -46 -10 -22 -4 -56 -11 -75 -16
-19 -5 -51 -11 -70 -14 -19 -3 -77 -17 -127 -31 -51 -13 -103 -26 -115 -29
-13 -2 -41 -9 -63 -14 -80 -22 -102 -25 -196 -28 -137 -5 -203 15 -336 100
-59 38 -64 44 -84 106 -11 36 -26 79 -33 95 -15 40 -117 219 -128 223 -4 2 -8
8 -8 13 0 9 -138 195 -177 238 -20 22 -22 36 -22 116 0 49 -3 101 -5 114 -3
13 -8 47 -10 75 -6 59 -9 75 -26 136 -7 25 -13 51 -13 58 0 6 -3 12 -7 12 -3
0 -6 9 -7 20 -1 10 -8 34 -17 52 -44 98 -88 186 -106 213 -11 17 -23 37 -27
45 -3 8 -9 17 -12 20 -4 3 -25 30 -47 60 -77 102 -284 288 -305 274 -10 -6 -6
-26 25 -127 40 -129 37 -205 -11 -347 -37 -110 -150 -338 -189 -381 -9 -10
-58 -41 -108 -69 -221 -121 -386 -219 -484 -286 -35 -24 -65 -44 -68 -44 -3 0
-11 -6 -19 -12 -7 -7 -25 -22 -41 -33 -61 -43 -157 -142 -198 -205 -44 -66
-103 -184 -181 -365 -23 -52 -101 -267 -130 -355 -15 -47 -30 -89 -34 -95 -3
-5 -6 -17 -7 -25 -1 -20 -15 -72 -23 -85 -3 -5 -6 -14 -7 -20 -1 -5 -9 -37
-18 -70 -15 -58 -24 -102 -31 -155 -2 -14 -6 -44 -9 -67 -17 -119 -16 -117
-32 -268 -3 -33 -7 -71 -9 -85 -1 -14 -5 -55 -9 -93 l-7 -67 38 -39 c49 -49
219 -147 398 -229 77 -35 144 -68 149 -72 5 -6 -17 -37 -54 -76 -185 -198
-248 -416 -170 -590 22 -50 80 -114 103 -114 8 0 17 -4 19 -10 2 -5 29 -12 61
-14 60 -4 70 -8 73 -30 7 -45 37 -127 62 -166 97 -152 251 -204 397 -135 33
16 62 32 63 37 2 4 8 8 14 8 5 0 15 6 23 13 39 39 154 109 171 103 11 -3 48
-33 84 -67 155 -144 213 -194 290 -246 141 -95 262 -141 415 -158 33 -4 62 -8
64 -11 2 -2 5 -25 7 -51 11 -169 20 -251 31 -293 10 -40 11 -43 17 -75 16 -86
122 -327 178 -408 25 -35 16 -48 -50 -72 -72 -27 -177 -81 -191 -99 -8 -9 -20
-16 -27 -16 -8 0 -14 -3 -14 -7 0 -5 -16 -25 -36 -45 -19 -21 -44 -58 -55 -84
-32 -72 -25 -196 13 -231 19 -17 78 -18 1504 -19 1214 -1 1486 1 1495 12 12
14 17 36 18 73 1 20 4 22 29 16 50 -13 67 -16 112 -21 61 -6 279 -6 310 1 14
2 49 10 79 16 152 31 299 100 474 221 34 24 160 141 187 174 60 74 106 130
111 134 23 21 129 197 173 291 52 107 122 293 132 349 3 14 12 52 21 85 18 71
19 76 38 185 8 47 17 130 20 184 3 54 8 102 10 107 3 4 1 10 -4 13 -5 3 -5 21
-1 41 4 19 4 35 0 35 -5 0 -5 13 0 29 4 16 6 31 4 34 -2 2 -6 58 -9 123 -3 65
-7 130 -10 143 -2 14 -7 46 -10 73 -19 165 -125 568 -184 703 -5 11 -31 70
-57 130 -44 102 -170 356 -224 450 -12 22 -45 83 -73 135 -27 52 -69 129 -92
170 -66 118 -178 351 -171 357 3 3 79 8 168 9 139 3 213 8 213 14 0 1 11 3 25
5 77 11 226 62 300 103 129 71 257 180 331 282 43 60 89 140 89 155 0 8 5 15
12 15 6 0 9 3 6 6 -4 3 5 31 19 62 13 31 28 66 33 77 13 30 42 134 61 220 29
132 31 468 4 620 -24 137 -80 305 -140 425 -45 90 -147 249 -184 288 -12 12
-20 22 -17 22 3 0 -7 13 -22 28 -15 16 -46 49 -68 74 -34 37 -155 144 -199
176 -80 59 -283 170 -319 176 -6 1 -15 4 -21 7 -13 8 -73 27 -105 33 -14 3
-43 10 -65 16 -22 5 -56 13 -75 16 -19 3 -46 7 -60 10 -26 5 -130 10 -134 7z
m179 -167 c17 -4 41 -9 55 -12 14 -3 36 -8 49 -10 14 -3 29 -8 35 -12 6 -3 16
-7 22 -8 7 -1 40 -12 74 -24 195 -69 431 -245 569 -425 17 -22 34 -44 39 -50
25 -32 95 -144 93 -150 -2 -4 2 -11 7 -14 28 -18 138 -299 148 -378 3 -20 6
-39 9 -43 2 -3 7 -38 10 -76 4 -38 9 -82 12 -99 5 -34 5 -184 -1 -230 -3 -16
-7 -55 -10 -86 -4 -31 -9 -67 -12 -80 -3 -13 -7 -35 -10 -49 -7 -34 -58 -185
-80 -235 -10 -22 -17 -43 -16 -47 1 -5 -2 -8 -8 -8 -5 0 -10 -4 -10 -9 0 -6
-16 -36 -35 -68 -156 -259 -471 -416 -821 -407 -132 3 -215 18 -236 44 -16 20
-61 147 -71 200 -3 14 -10 36 -15 50 -5 14 -9 27 -9 30 0 3 -5 28 -11 55 -30
133 -37 212 -36 415 1 187 12 275 49 379 22 64 19 107 -10 136 -20 21 -28 23
-47 14 -28 -13 -55 -48 -62 -80 -3 -13 -12 -49 -20 -79 -9 -30 -18 -73 -22
-95 -3 -22 -9 -59 -14 -83 -11 -62 -11 -355 1 -437 38 -268 89 -453 192 -695
6 -14 11 -27 12 -30 16 -45 174 -362 229 -458 20 -35 36 -65 36 -67 0 -2 23
-43 51 -92 28 -48 64 -113 79 -143 15 -30 54 -107 87 -170 81 -158 138 -284
181 -400 28 -72 90 -271 97 -309 2 -9 4 -16 5 -16 1 0 3 -9 5 -20 2 -11 10
-49 18 -85 8 -36 17 -83 21 -105 3 -22 8 -56 11 -75 3 -19 8 -48 10 -65 23
-144 23 -484 0 -615 -2 -14 -7 -41 -9 -60 -3 -19 -8 -46 -11 -60 -3 -14 -8
-41 -11 -60 -3 -19 -13 -60 -22 -90 -9 -30 -16 -57 -17 -60 -5 -26 -60 -180
-71 -197 -8 -13 -12 -23 -10 -23 5 0 -68 -148 -106 -215 -86 -152 -266 -351
-393 -437 -270 -181 -513 -231 -833 -173 -46 9 -114 39 -165 73 -23 16 -57 34
-74 41 -18 8 -33 17 -33 21 0 4 24 26 53 48 59 46 208 197 282 287 28 33 53
62 57 63 5 2 8 10 8 17 0 7 4 15 8 17 9 3 137 174 168 223 10 17 21 32 25 35
8 7 122 207 142 251 56 121 75 169 70 169 -3 0 -1 6 4 13 28 35 128 379 137
472 1 11 5 34 9 50 37 166 44 717 12 875 -3 14 -7 42 -10 62 -2 21 -6 42 -9
47 -4 5 -8 22 -10 38 -23 154 -136 429 -256 618 -27 44 -53 88 -56 98 -4 9
-10 17 -15 17 -5 0 -9 5 -9 10 0 6 -5 16 -10 23 -6 7 -34 44 -62 82 -29 39
-57 75 -63 81 -5 6 -23 29 -40 50 -73 95 -249 270 -361 360 -121 96 -323 209
-429 240 -17 5 -59 15 -85 20 -13 3 -30 10 -36 15 -11 9 -54 148 -58 189 -1 8
-5 31 -9 50 -27 135 -31 186 -31 360 1 181 6 260 17 260 5 0 5 5 2 10 -14 23
66 346 112 450 30 68 124 255 141 282 33 51 103 149 125 175 113 135 322 302
457 365 117 54 225 97 225 89 0 -1 12 2 28 8 15 6 38 13 50 15 12 3 33 8 47
11 14 3 43 8 65 11 22 4 41 7 43 9 5 5 337 -3 367 -9z m-4152 -928 c42 -54
134 -225 142 -265 2 -10 8 -30 13 -44 25 -65 45 -212 47 -339 0 -74 5 -142 10
-151 6 -10 33 -43 60 -74 82 -94 211 -284 258 -380 41 -84 51 -112 74 -205 7
-28 22 -44 77 -82 164 -113 267 -151 421 -153 61 -1 115 1 120 4 6 3 19 7 29
8 11 2 47 11 80 19 34 9 70 17 81 19 11 2 67 15 125 30 196 49 409 89 542 100
36 3 83 8 104 10 56 7 251 7 304 0 108 -13 130 -18 213 -46 74 -25 200 -89
217 -109 3 -4 12 -9 20 -13 19 -9 53 -30 60 -38 3 -3 15 -12 27 -20 86 -59
262 -233 373 -369 25 -30 47 -57 51 -60 35 -30 227 -337 278 -445 86 -179 119
-285 156 -491 35 -194 39 -551 9 -784 -29 -228 -115 -519 -213 -722 -154 -320
-482 -731 -720 -903 -57 -41 -109 -103 -115 -139 -15 -78 26 -122 124 -136 59
-8 145 -58 145 -83 0 -9 -112 -11 -460 -9 -253 2 -692 4 -977 5 -284 1 -520 5
-524 9 -17 17 57 72 136 101 41 15 70 23 125 32 11 2 34 6 50 9 17 4 124 8
239 11 116 3 214 9 218 13 10 10 -46 48 -122 82 -275 123 -482 338 -615 640
-130 296 -162 628 -89 900 44 161 116 309 212 438 115 153 263 277 417 347 88
41 98 45 120 50 11 2 36 9 55 15 19 6 64 13 100 16 53 5 69 10 88 31 43 47 17
121 -43 124 -31 2 -145 -11 -156 -17 -3 -2 -21 -6 -39 -9 -58 -10 -170 -58
-265 -114 -161 -94 -307 -235 -420 -406 -51 -77 -135 -233 -139 -258 -1 -7 -4
-16 -8 -22 -3 -5 -17 -48 -31 -95 -22 -71 -30 -103 -42 -160 -5 -25 -22 -59
-46 -96 -80 -117 -242 -203 -417 -220 -31 -3 -63 -7 -69 -9 -7 -3 -13 0 -13 6
0 6 -6 6 -19 0 -10 -6 -21 -8 -23 -5 -3 2 -32 6 -65 9 -34 3 -72 9 -87 15 -14
5 -26 7 -26 5 0 -8 -153 65 -205 97 -72 46 -178 134 -291 245 -44 43 -134 109
-134 98 0 -3 -6 -3 -12 2 -35 21 -111 -12 -229 -98 -37 -27 -72 -49 -78 -49
-6 0 -11 -4 -11 -9 0 -9 -71 -31 -110 -33 -31 -2 -88 23 -116 50 -29 27 -63
84 -75 124 -9 30 -13 143 -6 178 17 85 76 209 129 269 29 34 121 53 278 56 80
2 159 7 175 10 122 24 199 66 266 146 22 27 38 49 34 49 -4 0 -3 6 2 13 16 19
32 77 38 132 10 94 16 139 20 145 4 7 14 52 21 100 5 30 5 165 1 200 -12 87
-48 128 -94 107 -28 -12 -30 -28 -27 -171 2 -119 -10 -194 -41 -241 -14 -23
-100 -47 -250 -70 -131 -20 -267 -20 -410 0 -63 9 -73 11 -77 14 -2 1 -18 4
-36 7 -40 5 -208 67 -268 99 -24 13 -57 26 -74 30 -16 4 -30 10 -30 13 0 9
-49 32 -67 32 -7 0 -13 5 -13 10 0 6 -5 10 -11 10 -19 0 -150 82 -160 101 -9
17 -7 59 6 174 3 22 7 67 10 100 3 33 8 71 10 85 3 14 8 52 11 85 3 33 12 92
21 130 19 92 21 100 23 103 2 1 3 5 4 10 16 59 78 257 93 292 3 8 7 20 9 25 7
25 45 127 74 195 17 41 38 92 46 114 7 21 41 93 74 160 60 123 120 205 175
244 17 12 44 33 60 47 17 13 35 28 40 32 23 18 234 152 275 175 25 14 68 39
96 56 67 39 142 81 229 126 67 36 135 97 135 123 0 7 4 13 8 13 10 0 121 221
155 310 14 36 35 100 48 143 12 43 26 76 30 75 4 -2 28 -29 52 -60z m-303
-3180 c0 -37 -101 -134 -149 -143 -9 -2 -16 -4 -16 -5 0 -2 -32 -7 -85 -14
-25 -3 -55 -7 -66 -10 -12 -2 -53 -7 -92 -10 -38 -3 -76 -8 -84 -11 -12 -4
-28 -8 -95 -20 -107 -20 -188 -74 -238 -157 -31 -53 -72 -159 -79 -205 -3 -19
-43 -54 -67 -58 -35 -7 -64 15 -86 63 -50 111 5 261 146 402 78 78 156 125
200 122 98 -8 369 -8 395 -1 17 5 52 11 79 14 26 3 66 7 90 10 23 3 62 11 87
19 58 18 60 18 60 4z m1224 -1285 c3 -21 9 -65 12 -98 3 -33 8 -69 10 -80 2
-11 7 -33 10 -50 7 -43 23 -106 34 -135 6 -14 11 -34 13 -45 2 -11 8 -29 12
-40 5 -11 16 -41 26 -67 33 -86 87 -192 133 -262 26 -38 46 -71 46 -74 0 -10
120 -150 168 -195 17 -16 32 -33 32 -37 0 -10 -63 -36 -134 -55 -72 -20 -136
-47 -136 -57 0 -5 -6 -8 -13 -8 -23 0 -113 -99 -137 -151 -27 -57 6 -51 -295
-51 -385 1 -365 0 -365 18 0 27 30 68 75 101 39 29 64 43 140 74 71 30 168 60
240 74 55 11 85 24 85 35 0 5 -23 32 -50 62 -86 90 -192 264 -241 393 -4 11
-11 29 -15 40 -9 24 -8 20 -22 71 -25 88 -45 242 -45 347 0 54 0 54 33 61 143
30 237 69 320 131 25 18 48 34 52 34 3 1 9 -16 12 -36z"/>
<path d="M6678 10443 c-8 -10 -29 -38 -45 -63 -17 -25 -54 -68 -82 -95 -49
-48 -60 -75 -42 -103 13 -21 46 -18 77 8 37 31 106 116 127 157 19 37 30 103
17 103 -4 0 -15 2 -22 5 -8 3 -21 -2 -30 -12z"/>
</g>
</svg>
